# xmcd
#
# Track frame offsets:
#	150
#	5142
#	23734
#	38537
#	43234
#	74034
#	90731
#	107426
#	129347
#	142887
#	149846
#	171260
#	193689
#	209828
#	212370
#
# Disc length: 3155 seconds
#
# Revision: 1
# Processed by: cddbd v1.5.2PL0 Copyright (c) Steve Scherf et al.
# Submitted via: audiograbber 1.82.02
#
DISCID=e10c510f
DTITLE=Farhad Mehrad - Goftogooie To
DYEAR=1900
DGENRE=Blues
TTITLE0=Farhad - goftegoo
TTITLE1=Farhad - Jome Ba Soot 1364
TTITLE2=Farhad - Marde Tanha 1368
TTITLE3=Farhad - Goftegoo
TTITLE4=Farhad - Bedoone Rafigh(Ar antis angir) 1380
TTITLE5=Farhad - Gonjeshkake Ashi Mashi 1368
TTITLE6=Farhad - Najva 1369
TTITLE7=Farhad - Do Ghazal az  Hafez 1364
TTITLE8=Farhad - Morghe sahar
TTITLE9=Farhad - Goftegoo
TTITLE10=Farhad - Barf 1378
TTITLE11=Farhad - Koodakane 1378
TTITLE12=Farhad - Vaghti ke Bache Boodam 1378
TTITLE13=Farhad - Goftegoo
TTITLE14=Farhad - Banooye Gisoo Hanaie 1381
EXTD=
EXTT0=
EXTT1=
EXTT2=
EXTT3=
EXTT4=
EXTT5=
EXTT6=
EXTT7=
EXTT8=
EXTT9=
EXTT10=
EXTT11=
EXTT12=
EXTT13=
EXTT14=
PLAYORDER=
